<svg preserveAspectRatio="none" width="100%" height="100%" overflow="visible" style="display: block;" viewBox="0 0 28 28.2029" fill="none" xmlns="http://www.w3.org/2000/svg">
<g id="24_icon-fill/bell">
<g id="Union">
<path d="M14.0011 18.5472C15.0347 18.5472 16.006 18.6266 16.8791 18.7637C16.8024 20.2898 15.5452 21.5037 14 21.5037C12.4549 21.5037 11.1964 20.2898 11.1198 18.7637C11.9937 18.6263 12.9662 18.5472 14.0011 18.5472Z" fill="var(--fill-0, white)"/>
<path fill-rule="evenodd" clip-rule="evenodd" d="M14 1.87092C14.9567 1.87092 15.7329 2.64711 15.7329 3.60383C15.7329 3.63754 15.7291 3.67086 15.7272 3.70409C18.953 4.48076 21.3497 7.38352 21.3498 10.8476V14.7874C21.3498 15.5887 21.8259 16.2978 22.4606 16.7869C23.7421 17.7746 24.4998 19.1325 24.5 20.2961C24.5 23.1952 19.7994 25.546 14.0011 25.5461C8.20282 25.5461 3.50228 23.1952 3.50228 20.2961C3.50252 19.1325 4.26016 17.7746 5.54167 16.7869C6.1763 16.2978 6.65137 15.5887 6.65137 14.7874V10.8476C6.6514 7.38422 9.04803 4.48147 12.2728 3.70409C12.2709 3.67088 12.2682 3.63752 12.2682 3.60383C12.2682 2.64729 13.0435 1.87121 14 1.87092ZM14.0011 17.147C13.1147 17.147 12.2612 17.2018 11.4616 17.3019C8.18027 17.7128 5.80872 18.8975 5.80827 20.2961C5.80827 22.0355 9.47634 23.4463 14.0011 23.4463C18.5259 23.4463 22.194 22.0355 22.194 20.2961C22.1936 18.8992 19.8274 17.7164 16.5521 17.3042C15.7492 17.2031 14.8919 17.147 14.0011 17.147Z" fill="var(--fill-0, white)"/>
</g>
</g>
</svg>
