<svg preserveAspectRatio="none" width="100%" height="100%" overflow="visible" style="display: block;" viewBox="0 0 28 30.8" fill="none" xmlns="http://www.w3.org/2000/svg">
<g id="Frame 2136139705">
<path id="Union" d="M10.5751 3.44417C10.8743 3.44417 11.1312 3.55429 11.3129 3.75336C11.4928 3.95037 11.5868 4.22059 11.5921 4.5219L11.7023 10.107C11.7063 10.2747 11.7477 10.3738 11.7974 10.4293C11.8436 10.4809 11.918 10.5183 12.0451 10.5183C12.1566 10.5183 12.2313 10.4804 12.279 10.424C12.3226 10.3723 12.3583 10.2876 12.3613 10.1593L12.3606 10.1014L12.3603 10.0985V10.0954L12.2868 4.73922C12.2772 4.424 12.3558 4.14307 12.5292 3.93781C12.7059 3.72869 12.964 3.61874 13.267 3.61873C13.5664 3.61873 13.8236 3.71922 14.0097 3.91696C14.1703 4.08762 14.2651 4.31697 14.2998 4.58197L14.3111 4.69752V4.69999L14.5959 10.2671C14.652 11.3414 14.5094 12.0944 14.1458 12.671C13.8281 13.1747 13.3547 13.5225 12.7553 13.8353L12.4903 13.9678C12.3051 14.056 12.2318 14.1176 12.1903 14.1964C12.1437 14.285 12.1204 14.4266 12.1249 14.7197L12.3271 25.5514V25.5532L12.326 25.6444C12.3113 26.0971 12.1508 26.4847 11.8571 26.7634C11.5451 27.0595 11.1017 27.215 10.5751 27.215C10.058 27.215 9.61051 27.0619 9.29422 26.768C8.97585 26.4721 8.80804 26.0495 8.8232 25.5493L9.02531 14.7197C9.02988 14.425 9.0087 14.2832 8.96348 14.1943C8.93388 14.1361 8.88697 14.0871 8.78751 14.0293L8.66913 13.9678H8.66878C7.93895 13.6191 7.36794 13.2471 7.0013 12.6717C6.63397 12.095 6.48905 11.3417 6.54512 10.2671L6.83911 4.69964V4.69717C6.85954 4.38613 6.96056 4.11503 7.14582 3.91979C7.33334 3.7222 7.59186 3.61874 7.89246 3.61873C8.1959 3.61873 8.45161 3.72914 8.62708 3.93852C8.79931 4.14405 8.87772 4.42497 8.87267 4.73957V4.73992L8.78079 10.0961V10.0971C8.77694 10.2591 8.81788 10.363 8.86949 10.4233C8.91867 10.4807 8.99396 10.5183 9.10517 10.5183C9.22795 10.5183 9.30654 10.4789 9.35747 10.4222C9.41125 10.3623 9.45324 10.2614 9.45711 10.1067L9.55817 4.52226L9.56418 4.41095C9.58811 4.1545 9.67984 3.92586 9.83732 3.75336C10.0191 3.55428 10.2759 3.44418 10.5751 3.44417ZM20.6351 3.44417C20.9225 3.44417 21.172 3.54569 21.3489 3.73286C21.5248 3.91897 21.6153 4.17509 21.6153 4.46113V25.5642C21.6153 26.0541 21.4567 26.4727 21.1454 26.768C20.8351 27.0623 20.3936 27.215 19.8634 27.215C19.3461 27.215 18.9008 27.0621 18.5857 26.768C18.2687 26.4723 18.1014 26.0504 18.1115 25.5514L18.2309 18.3674V18.367C18.2353 18.1381 18.212 18.0066 18.1613 17.9077C18.1237 17.8343 18.0643 17.7658 17.9616 17.6865L17.8436 17.6031L17.8401 17.6006V17.6003L17.6041 17.437C17.2193 17.1805 16.9562 16.9284 16.7931 16.6257C16.6296 16.3223 16.5772 15.9876 16.5772 15.5868V14.9162C16.5772 13.0828 16.8995 10.9629 17.4207 9.02611C17.941 7.0924 18.6646 5.32259 19.4779 4.19894L19.4782 4.19858C19.8281 3.71645 20.1507 3.44418 20.6351 3.44417ZM10.6663 27.0323C10.6363 27.0335 10.6059 27.0341 10.5751 27.0341C10.6059 27.0341 10.6363 27.0335 10.6663 27.0323ZM20.6673 26.8744H20.6676H20.6673ZM12.1451 25.6384H12.1454H12.1451ZM17.3447 17.0147C17.3668 17.0341 17.39 17.053 17.4136 17.0723C17.39 17.053 17.3668 17.0341 17.3447 17.0147ZM17.2511 16.9278C17.2726 16.9489 17.295 16.9698 17.3182 16.9907C17.295 16.9698 17.2726 16.9489 17.2511 16.9278ZM17.1641 16.837C17.1811 16.8559 17.1989 16.8745 17.2171 16.8932C17.1989 16.8745 17.1811 16.8559 17.1641 16.837ZM17.0899 16.7487C17.1039 16.7665 17.1187 16.784 17.1337 16.8017C17.1187 16.784 17.1039 16.7665 17.0899 16.7487ZM17.0221 16.655C17.0334 16.6721 17.0455 16.6888 17.0578 16.7056C17.0455 16.6888 17.0334 16.6721 17.0221 16.655ZM16.9638 16.5596C16.9741 16.578 16.9847 16.5963 16.9959 16.6144C16.9847 16.5963 16.9741 16.578 16.9638 16.5596ZM16.914 16.4617C16.9223 16.4798 16.9307 16.4978 16.9397 16.5155C16.9307 16.4978 16.9223 16.4798 16.914 16.4617ZM16.8708 16.3579C16.8782 16.378 16.8859 16.3979 16.8942 16.4176C16.8859 16.3979 16.8782 16.378 16.8708 16.3579ZM16.8376 16.2554C16.8434 16.2753 16.8492 16.295 16.8556 16.3144C16.8492 16.295 16.8434 16.2753 16.8376 16.2554ZM16.8118 16.1543C16.8154 16.1705 16.8188 16.1865 16.8228 16.2024C16.8188 16.1865 16.8154 16.1705 16.8118 16.1543ZM16.7857 16.0116C16.7895 16.0378 16.7934 16.0636 16.7981 16.089C16.7934 16.0636 16.7895 16.0378 16.7857 16.0116ZM16.762 15.7582C16.7615 15.7481 16.761 15.738 16.7606 15.7278L16.7602 15.719C16.7607 15.7322 16.7614 15.7452 16.762 15.7582ZM13.3454 13.2597H13.3458H13.3454ZM14.2882 11.8925H14.2885H14.2882ZM8.94157 10.6763H8.94192H8.94157ZM14.0811 4.41378H14.0815H14.0811ZM8.57832 4.18975H8.57867H8.57832ZM21.3097 3.97844H21.31H21.3097ZM7.9861 3.80389H7.98645H7.9861ZM20.7242 3.62898H20.7245H20.7242ZM16.7708 15.8858C16.7737 15.9177 16.7768 15.949 16.7807 15.9798C16.7768 15.949 16.7737 15.9177 16.7708 15.8858Z" fill="var(--action-icon-fill, #34253D)"/>
</g>
</svg>
