<svg preserveAspectRatio="none" width="100%" height="100%" overflow="visible" style="display: block;" viewBox="0 0 50 50.3623" fill="none" xmlns="http://www.w3.org/2000/svg">
<g id="24_icon-fill/home">
<path id="Vector" d="M23.5254 6.46421C24.4944 6.22726 25.5057 6.22729 26.4747 6.46421C27.5821 6.73504 28.5599 7.40449 29.6729 8.16636L40.0918 15.2767C40.9802 15.8814 41.7631 16.4135 42.3497 17.14C42.864 17.7771 43.2493 18.5099 43.4844 19.2962C43.7525 20.1927 43.7513 21.1433 43.75 22.223V35.3343C43.7501 36.4405 43.7503 37.395 43.6866 38.181C43.6193 39.0104 43.4709 39.8354 43.0694 40.6293C42.4702 41.8138 41.514 42.7777 40.3379 43.3812C39.5497 43.7858 38.7299 43.9355 37.9063 44.0033C37.1261 44.0675 36.1789 44.0668 35.0811 44.0668H14.92C13.8218 44.0668 12.8741 44.0675 12.0938 44.0033C11.2703 43.9355 10.4513 43.7856 9.66313 43.3812C8.48711 42.7777 7.53089 41.8138 6.93169 40.6293C6.53014 39.8353 6.38081 39.0105 6.31352 38.181C6.24976 37.395 6.25001 36.4405 6.25005 35.3343V22.223C6.2488 21.1434 6.24766 20.1926 6.51567 19.2962C6.75085 18.5099 7.13699 17.7772 7.65141 17.14C8.23788 16.4136 9.02004 15.8813 9.90825 15.2767L20.3272 8.16636C21.4401 7.40455 22.4181 6.73508 23.5254 6.46421ZM21.875 25.181C20.7245 25.181 19.7921 26.1135 19.792 27.264V33.5892C19.792 34.7398 20.7245 35.6732 21.875 35.6732H28.125C29.2756 35.6732 30.2081 34.7398 30.2081 33.5892V27.264C30.208 26.1135 29.2756 25.1811 28.125 25.181H21.875Z" fill="var(--fill-0, #DED6C0)"/>
</g>
</svg>
