<svg preserveAspectRatio="none" width="100%" height="100%" overflow="visible" style="display: block;" viewBox="0 0 44.904 37.7717" fill="none" xmlns="http://www.w3.org/2000/svg">
<path id="Vector" fill-rule="evenodd" clip-rule="evenodd" d="M26.154 0C36.5094 0 44.904 4.6975 44.904 10.4921C44.904 18.8859 42.8207 37.7717 26.154 37.7717C18.1184 37.7715 13.4785 33.3783 10.8221 27.8902L9.45694 28.167C5.12283 29.0398 0.919891 26.1634 0.128721 21.7836C-0.642331 17.5106 2.12842 13.4015 6.35633 12.5496L7.43667 12.3303C7.41373 11.6757 7.4041 11.0599 7.4041 10.4921C7.4041 4.69759 15.799 0.000167874 26.154 0ZM7.17219 16.6645C5.17319 17.0676 3.86406 19.0109 4.22825 21.0315C4.60229 23.1031 6.58923 24.4627 8.63906 24.0499L9.26569 23.9229C8.4949 21.439 8.03008 18.8941 7.75608 16.5457L7.17219 16.6645ZM26.154 4.19686C18.1002 4.19699 11.5708 7.01543 11.5708 10.4921C11.5708 13.9689 18.1002 16.7872 26.154 16.7874C34.2082 16.7874 40.7374 13.9689 40.7374 10.4921C40.7374 7.01537 34.2082 4.19686 26.154 4.19686Z" fill="var(--fill-0, #DED6C0)"/>
</svg>
