<svg preserveAspectRatio="none" width="100%" height="100%" overflow="visible" style="display: block;" viewBox="0 0 50 50.3623" fill="none" xmlns="http://www.w3.org/2000/svg">
<g id="24_icon-fill/crown">
<path id="Vector" d="M23.2142 6.1023C24.0235 4.75456 25.9772 4.75447 26.7865 6.1023L34.3753 18.7507L44.6107 15.6013C46.1108 15.1402 47.5634 16.4404 47.2698 17.9822L43.7503 36.4587C42.7086 40.6253 37.5001 45.8337 25.0003 45.8337C12.5004 45.8337 7.29205 40.6254 6.25032 36.4587L2.73079 17.9822C2.43717 16.4402 3.88965 15.1397 5.38997 15.6013L15.6253 18.7507L23.2142 6.1023ZM24.9993 29.1668C16.9456 29.1669 10.4166 31.9651 10.4163 35.4168C10.4164 38.8684 16.9455 41.6666 24.9993 41.6668C33.0535 41.6668 39.5833 38.8685 39.5833 35.4168C39.5831 31.9651 33.0534 29.1668 24.9993 29.1668Z" fill="var(--fill-0, #DED6C0)"/>
</g>
</svg>
