<svg preserveAspectRatio="none" width="100%" height="100%" overflow="visible" style="display: block;" viewBox="0 0 50 50.3623" fill="none" xmlns="http://www.w3.org/2000/svg">
<g id="24_icon-fill/child" clip-path="url(#clip0_0_116)">
<path id="Vector" d="M25 5.20855C34.2082 5.20855 41.9459 11.4975 44.1562 20.0142C44.2796 20.4895 44.7013 20.8334 45.1924 20.8335H45.833C48.1342 20.8335 50 22.6994 50 25.0005C49.9999 27.3016 48.1341 29.1666 45.833 29.1666H45.1924C44.7014 29.1667 44.2796 29.5106 44.1562 29.9859C41.946 38.5028 34.2083 44.7916 25 44.7916C15.7916 44.7916 8.054 38.5028 5.84375 29.9859C5.72037 29.5106 5.29865 29.1667 4.80762 29.1666H4.16699C1.8659 29.1666 0.000148687 27.3016 0 25.0005C0 22.6994 1.86581 20.8335 4.16699 20.8335H4.80762C5.29866 20.8334 5.72037 20.4895 5.84375 20.0142C7.43169 13.8958 11.872 8.92697 17.6611 6.61382C17.0822 8.04435 16.9341 9.61397 17.2354 11.1285C17.5409 12.6639 18.2953 14.0742 19.4023 15.1812C20.5094 16.2883 21.9196 17.0427 23.4551 17.3482C24.9906 17.6536 26.5828 17.4971 28.0293 16.898C29.4757 16.2989 30.7122 15.2837 31.582 13.982C32.0932 13.2168 31.888 12.1819 31.123 11.6705C30.3578 11.1592 29.322 11.3644 28.8105 12.1294C28.3069 12.8831 27.5914 13.471 26.7539 13.8179C25.9164 14.1648 24.9945 14.2555 24.1055 14.0787C23.2166 13.9018 22.3997 13.4656 21.7588 12.8248C21.118 12.1839 20.6818 11.367 20.5049 10.4781C20.3281 9.58908 20.4188 8.66705 20.7656 7.82964C21.1125 6.99224 21.7004 6.27658 22.4541 5.773C22.7703 5.56174 23.1104 5.39326 23.4648 5.26714C23.9715 5.22827 24.4834 5.20855 25 5.20855Z" fill="var(--fill-0, #DED6C0)"/>
</g>
<defs>
<clipPath id="clip0_0_116">
<rect width="50" height="50.3623" fill="white"/>
</clipPath>
</defs>
</svg>
