<svg preserveAspectRatio="none" width="100%" height="100%" overflow="visible" style="display: block;" viewBox="0 0 39.9531 39.95" fill="none" xmlns="http://www.w3.org/2000/svg">
<path id="Vector" d="M39.0853 0.861302C37.3173 -0.906727 33.5652 0.155957 30.666 3.05517L24.9711 8.75005C24.324 9.3972 24.0173 9.50468 23.1798 9.49552L4.02171 9.13056C3.31167 9.09355 2.62161 9.33538 2.12978 9.82721L0.369541 11.5874C-0.251719 12.2087 -0.0154922 13.118 0.816108 13.4318L15.2112 18.5598L9.56542 25.6499L2.94865 23.8996C2.26646 23.7352 1.62817 23.9252 1.05868 24.4947L0.437423 25.116C-0.132066 25.6854 -0.146827 26.4473 0.401013 26.9951L12.9764 39.5705C13.4994 40.0935 14.2612 40.0787 14.8307 39.5092L15.4519 38.8879C16.0214 38.3185 16.2364 37.7051 16.047 36.998L14.3217 30.4061L21.3868 24.7354L26.5148 39.1305C26.8536 39.987 27.7379 40.1983 28.3592 39.5771L30.1194 37.8169C30.6113 37.325 30.878 36.6599 30.841 35.9498L30.476 16.7918C30.442 15.9293 30.5743 15.6476 31.2215 15.0004L36.9164 9.30553C39.8156 6.40631 40.8534 2.62933 39.0853 0.861302Z" fill="var(--fill-0, #DED6C0)"/>
</svg>
