<svg preserveAspectRatio="none" width="100%" height="100%" overflow="visible" style="display: block;" viewBox="0 0 50 50.3623" fill="none" xmlns="http://www.w3.org/2000/svg">
<g id="24_icon-fill/charity">
<path id="Vector" d="M31.4583 9.37477C36.1254 9.37477 38.4589 9.37473 40.2415 10.283C41.8094 11.0819 43.0842 12.3567 43.8831 13.9246C44.7914 15.7071 44.7913 18.0409 44.7913 22.7078V27.2918C44.7913 31.9586 44.7914 34.2924 43.8831 36.075C43.0842 37.6428 41.8094 38.9177 40.2415 39.7166C38.4589 40.6248 36.1254 40.6248 31.4583 40.6248H18.5413C13.8745 40.6248 11.5407 40.6248 9.75814 39.7166C8.19027 38.9176 6.91546 37.6428 6.11654 36.075C5.20828 34.2924 5.20833 31.9586 5.20833 27.2918V22.7078C5.20833 18.0409 5.20828 15.7071 6.11654 13.9246C6.91546 12.3567 8.19027 11.0819 9.75814 10.283C11.5407 9.37471 13.8745 9.37477 18.5413 9.37477H31.4583ZM29.0999 18.9031C27.3576 18.7454 25.9173 19.5774 24.9993 20.8113C24.0814 19.5778 22.6418 18.7454 20.8997 18.9031C18.3804 19.1315 16.6665 21.1386 16.6663 23.7556C16.6663 26.1475 17.9761 28.1622 19.5677 29.657C21.164 31.156 23.1439 32.2317 24.7337 32.7507C24.9063 32.8071 25.0924 32.8069 25.265 32.7507C26.8549 32.2318 28.8355 31.1561 30.432 29.657C32.0237 28.1622 33.3333 26.1476 33.3333 23.7556C33.3332 21.1385 31.6194 19.1314 29.0999 18.9031Z" fill="var(--fill-0, #DED6C0)"/>
</g>
</svg>
