<svg preserveAspectRatio="none" width="100%" height="100%" overflow="visible" style="display: block;" viewBox="0 0 45.8333 37.5" fill="none" xmlns="http://www.w3.org/2000/svg">
<path id="Vector" fill-rule="evenodd" clip-rule="evenodd" d="M20.5851 1.20313e-05C20.029 0.00481816 19.3916 0.0409739 18.8009 0.260429C18.0978 0.521896 17.4789 0.970144 17.0085 1.55437C16.4819 2.2086 16.236 3.04147 16.0299 3.66009L13.0839 12.5H2.08333C0.932752 12.5 1.94501e-05 13.4328 0 14.5833C0 15.7339 0.932741 16.6667 2.08333 16.6667H4.16667L5.68644 31.8726C6.0062 35.0672 8.69528 37.4999 11.9059 37.5H33.9274C37.1381 37.4999 39.8271 35.0672 40.1469 31.8726L41.6667 16.6667H43.75C44.9006 16.6667 45.8333 15.7339 45.8333 14.5833C45.8333 13.4328 44.9006 12.5 43.75 12.5H34.1431L36.6781 4.89503C36.7834 4.57887 36.9067 4.21587 36.9832 3.89812C37.0619 3.57137 37.156 3.04685 37.0239 2.44956C36.8383 1.61111 36.316 0.884941 35.5794 0.443534L35.3821 0.335705C34.9255 0.110804 34.4849 0.0515627 34.1919 0.0264606C33.8666 -0.00135866 33.4833 7.55953e-06 33.1502 1.20313e-05H20.5851ZM20.8333 19.1671C21.7538 19.1671 22.4996 19.9129 22.4996 20.8333C22.4996 21.7538 21.7538 22.4996 20.8333 22.4996H12.5C11.5795 22.4996 10.8337 21.7538 10.8337 20.8333C10.8337 19.9129 11.5795 19.1671 12.5 19.1671H20.8333ZM29.7506 12.5H17.4744L19.9829 4.97845C20.1209 4.56457 20.1951 4.34838 20.2576 4.19516C20.2599 4.18952 20.2636 4.18393 20.2657 4.17889H20.2779C20.4431 4.16811 20.6738 4.16668 21.11 4.16668H32.5277L29.7506 12.5Z" fill="var(--fill-0, #DED6C0)"/>
</svg>
