<svg width="96" height="96" viewBox="0 0 96 96" fill="none" xmlns="http://www.w3.org/2000/svg">
  <path d="M18 49C27 35 42 28 57 32C66 34 73 40 78 49C73 58 66 64 57 66C42 70 27 63 18 49Z" fill="#6CC7D7"/>
  <path d="M13 35C23 38 29 43 33 49C29 55 23 60 13 63C17 54 17 44 13 35Z" fill="#4DAFBE"/>
  <path d="M52 32C47 41 47 56 52 66" stroke="#E9FAFC" stroke-width="5" stroke-linecap="round"/>
  <path d="M37 37C34 45 34 53 37 61" stroke="#E9FAFC" stroke-width="4" stroke-linecap="round"/>
  <circle cx="65" cy="45" r="4" fill="#12272E"/>
  <path d="M74 50C70 52 66 52 62 50" stroke="#12272E" stroke-width="3" stroke-linecap="round"/>
  <path d="M55 66C61 72 69 73 77 69C69 64 61 63 55 66Z" fill="#5EC0D0"/>
</svg>
