<svg preserveAspectRatio="none" width="100%" height="100%" overflow="visible" style="display: block;" viewBox="0 0 12.6837 21.4113" fill="none" xmlns="http://www.w3.org/2000/svg">
<path id="&#244;&#128;&#184;&#169;" opacity="0.2" d="M3.16449 21.4113C2.38891 21.4113 1.91803 20.9774 1.92726 20.2203L2.10269 9.85162C2.10269 9.52846 1.96419 9.28841 1.67797 9.15914C0.459214 8.62363 -0.0670672 8.06042 0.00679686 6.44464L0.256088 0.775573C0.274554 0.36932 0.514612 0.138495 0.893166 0.138495C1.26249 0.138495 1.47485 0.378553 1.47485 0.794039L1.41021 6.30614C1.41021 6.6293 1.62257 6.83243 1.92726 6.83243C2.24118 6.83243 2.46278 6.63853 2.46278 6.33384L2.55511 0.627845C2.56434 0.230825 2.78593 0 3.16449 0C3.54304 0 3.77386 0.230825 3.7831 0.627845L3.87543 6.33384C3.87543 6.63853 4.09702 6.83243 4.41094 6.83243C4.71563 6.83243 4.91876 6.6293 4.91876 6.30614L4.85413 0.794039C4.85413 0.378553 5.07572 0.138495 5.43581 0.138495C5.81436 0.138495 6.05442 0.36932 6.07288 0.775573L6.33141 6.44464C6.39604 8.06042 5.86976 8.62363 4.651 9.15914C4.36478 9.28841 4.22628 9.52846 4.22628 9.85162L4.41094 20.2203C4.42017 20.9774 3.94006 21.4113 3.16449 21.4113ZM10.3847 13.3602C10.4032 13.0278 10.2554 12.7692 9.92305 12.5384L9.3783 12.1691C8.91665 11.8644 8.68582 11.3935 8.68582 10.7565V10.304C8.68582 6.61083 9.66452 2.70527 11.151 0.618612C11.4465 0.18466 11.6773 0 12.0282 0C12.3606 0 12.6837 0.221592 12.6837 0.692476V20.2757C12.6837 21.0143 12.2036 21.4113 11.4188 21.4113C10.6525 21.4113 10.1631 20.9774 10.1908 20.1741L10.3847 13.3602Z" fill="var(--fill-0, black)"/>
</svg>
