<svg preserveAspectRatio="none" width="100%" height="100%" overflow="visible" style="display: block;" viewBox="0 0 61.5916 60.7194" fill="none" xmlns="http://www.w3.org/2000/svg">
<g id="Frame 2136139674">
<path id="Vector 5" d="M25.0887 15.2002L23.1011 4.931C22.8981 3.88222 23.4446 2.83348 24.4572 2.49324C26.8084 1.70324 30.996 0.688487 33.094 2.56567C35.2086 4.4577 33.2771 7.56665 35.3917 9.45867C36.8057 10.7238 39.23 10.7301 41.3092 10.4169C43.8149 10.0395 46.4555 10.0853 48.5505 11.5109C52.9573 14.5095 60.0916 20.6516 60.0916 28.9889C60.0916 47.3702 42.2851 58.8586 27.3498 58.2841C20.5434 58.0224 15.0667 53.1144 10.6917 53.1144C9.59826 53.1144 9.54576 54.546 9.79099 56.0463C10.0581 57.6804 8.84277 59.3174 7.1903 59.2141L3.59016 58.9891C2.40624 58.9151 1.47943 57.9611 1.50036 56.775C1.59192 51.5881 2.42073 38.0306 8.39448 31.2865C11.2382 28.0761 16.6896 25.1426 20.8149 23.2271C23.8768 21.8054 25.7302 18.5145 25.0887 15.2002Z" fill="var(--fill-0, #FCBBA7)" stroke="var(--stroke-0, #C98D7E)" stroke-width="3"/>
<g id="Frame 2136139675">
<mask id="mask0_0_17" style="mask-type:alpha" maskUnits="userSpaceOnUse" x="-10" y="43" width="82" height="20">
<rect id="Rectangle 314" x="-9.50975" y="43.4999" width="81" height="19" fill="var(--fill-0, #D9D9D9)"/>
</mask>
<g mask="url(#mask0_0_17)">
<path id="Vector 4" d="M25.0887 15.2002L23.1011 4.931C22.8981 3.88222 23.4446 2.83348 24.4572 2.49324C26.8084 1.70324 30.996 0.688487 33.094 2.56567C35.2086 4.4577 33.2771 7.56665 35.3917 9.45867C36.8057 10.7238 39.23 10.7301 41.3092 10.4169C43.8149 10.0395 46.4555 10.0853 48.5505 11.5109C52.9573 14.5095 60.0916 20.6516 60.0916 28.9889C60.0916 47.3702 42.2851 58.8586 27.3498 58.2841C20.5434 58.0224 15.0667 53.1144 10.6917 53.1144C9.59826 53.1144 9.54576 54.546 9.79099 56.0463C10.0581 57.6804 8.84277 59.3174 7.1903 59.2141L3.59016 58.9891C2.40624 58.9151 1.47943 57.9611 1.50036 56.775C1.59192 51.5881 2.42073 38.0306 8.39448 31.2865C11.2382 28.0761 16.6896 25.1426 20.8149 23.2271C23.8768 21.8054 25.7302 18.5145 25.0887 15.2002Z" fill="var(--fill-0, #FF3C00)"/>
</g>
</g>
</g>
</svg>
