<svg preserveAspectRatio="none" width="100%" height="100%" overflow="visible" style="display: block;" viewBox="0 0 13.9204 16.9253" fill="none" xmlns="http://www.w3.org/2000/svg">
<path id="&#244;&#128;&#133;&#136;" d="M6.96436 16.9253C3.11279 16.9253 0 13.8125 0 9.96924C0 6.11768 3.11279 3.00488 6.96436 3.00488C7.3877 3.00488 7.79443 3.04639 8.19287 3.12109L6.21729 1.16211C6.08447 1.0376 6.03467 0.863281 6.03467 0.688965C6.03467 0.307129 6.31689 0 6.69043 0C6.88965 0 7.04736 0.074707 7.18018 0.20752L10.4092 3.48633C10.542 3.61914 10.6167 3.80176 10.6167 3.98438C10.6167 4.17529 10.5503 4.34131 10.4092 4.49072L7.17188 7.73633C7.04736 7.86084 6.89795 7.92725 6.69043 7.92725C6.31689 7.92725 6.03467 7.63672 6.03467 7.25488C6.03467 7.08057 6.09277 6.91455 6.22559 6.79004L8.4751 4.55713C7.99365 4.42432 7.4873 4.35791 6.96436 4.35791C3.86816 4.35791 1.36133 6.86475 1.36133 9.96094C1.36133 13.0571 3.86816 15.564 6.96436 15.564C10.0605 15.564 12.5674 13.0571 12.5674 9.96094C12.5674 9.5874 12.8745 9.28027 13.248 9.28027C13.6133 9.28027 13.9204 9.5874 13.9204 9.96094C13.9204 13.8125 10.8076 16.9253 6.96436 16.9253Z" fill="var(--fill-0, black)"/>
</svg>
