<svg preserveAspectRatio="none" width="100%" height="100%" overflow="visible" style="display: block;" viewBox="0 0 23.9644 15.041" fill="none" xmlns="http://www.w3.org/2000/svg">
<path id="&#244;&#128;&#155;&#185;" opacity="0.2" d="M3.1626 15.041C1.26172 15.041 0 13.7793 0 11.8369C0 11.0068 0.190918 10.0522 0.514648 8.98145C1.021 7.27979 1.90918 4.96387 2.75586 3.1709C3.46973 1.67676 3.83496 0.996094 5.59473 0.597656C7.15527 0.240723 9.33008 0 11.9863 0C14.6426 0 16.8091 0.240723 18.3696 0.597656C20.1294 0.996094 20.4946 1.67676 21.2085 3.1709C22.0552 4.96387 22.9434 7.27979 23.4497 8.98145C23.7734 10.0522 23.9644 11.0068 23.9644 11.8369C23.9644 13.7793 22.7026 15.041 20.8018 15.041C19.6646 15.041 18.8843 14.626 18.187 13.7627L16.6846 11.9448C16.4688 11.6875 16.2197 11.563 15.9707 11.563H7.99365C7.74463 11.563 7.49561 11.6875 7.27979 11.9448L5.77734 13.7627C5.08008 14.626 4.2998 15.041 3.1626 15.041ZM5.05518 5.85205C5.05518 6.30029 5.3208 6.57422 5.76904 6.57422H7.30469V8.06836C7.30469 8.5083 7.55371 8.78223 7.98535 8.78223C8.40869 8.78223 8.66602 8.5083 8.66602 8.06836V6.57422H10.1021C10.5835 6.57422 10.874 6.30029 10.874 5.85205C10.874 5.42041 10.5835 5.15479 10.1021 5.15479H8.66602V3.66064C8.66602 3.2207 8.40869 2.95508 7.98535 2.95508C7.55371 2.95508 7.30469 3.2207 7.30469 3.66064V5.15479H5.76904C5.3208 5.15479 5.05518 5.42041 5.05518 5.85205ZM17.3071 5.76904C18.0044 5.76904 18.5605 5.21289 18.5605 4.52393C18.5605 3.82666 18.0044 3.27051 17.3071 3.27051C16.6265 3.27051 16.0537 3.82666 16.0537 4.52393C16.0537 5.21289 16.6265 5.76904 17.3071 5.76904ZM14.792 8.30078C15.481 8.30078 16.0454 7.74463 16.0454 7.05566C16.0454 6.3667 15.481 5.80225 14.792 5.80225C14.1113 5.80225 13.5386 6.3667 13.5386 7.05566C13.5386 7.74463 14.1113 8.30078 14.792 8.30078Z" fill="var(--fill-0, black)"/>
</svg>
