<svg preserveAspectRatio="none" width="100%" height="100%" overflow="visible" style="display: block;" viewBox="0 0 36 36" fill="none" xmlns="http://www.w3.org/2000/svg">
<g id="Frame 6">
<rect width="36" height="36" rx="18" fill="var(--fill-0, black)"/>
<path id="&#244;&#128;&#136;&#160;" d="M18.5421 25.4491C17.9105 25.4491 17.7 24.9465 17.4962 24.2606L16.4164 20.6746C16.2873 20.2196 16.3077 19.9887 16.5726 19.7102L23.5068 12.2327C23.5883 12.1445 23.5815 12.0426 23.5136 11.9747C23.4456 11.9135 23.3438 11.9 23.2555 11.9815L15.8051 18.9428C15.5131 19.2145 15.2686 19.228 14.834 19.0922L11.1665 17.9784C10.5145 17.7814 10.0391 17.5709 10.0391 16.9461C10.0391 16.4503 10.4806 16.1039 11.0511 15.8866L22.7325 11.411C23.0449 11.2887 23.3234 11.2208 23.5543 11.2208C23.9958 11.2208 24.2674 11.4925 24.2674 11.9339C24.2674 12.1648 24.1995 12.4433 24.0772 12.7557L19.6288 24.376C19.3775 25.028 19.0311 25.4491 18.5421 25.4491Z" fill="var(--fill-0, white)"/>
</g>
</svg>
